<?xml version="1.0" encoding="utf-8"?>
<!-- Generator: Adobe Illustrator 13.0.0, SVG Export Plug-In . SVG Version: 6.00 Build 14948)  -->
<!DOCTYPE svg PUBLIC "-//W3C//DTD SVG 1.1//EN" "http://www.w3.org/Graphics/SVG/1.1/DTD/svg11.dtd">
<svg version="1.1" id="Calque_1" xmlns="http://www.w3.org/2000/svg" xmlns:xlink="http://www.w3.org/1999/xlink" x="0px" y="0px"
	 width="771.804px" height="511.304px" viewBox="0 0 771.804 511.304" enable-background="new 0 0 771.804 511.304"
	 xml:space="preserve">
<g>
	<g>
		<path fill="#ED1C24" d="M95.378,477.872c-3.041,7.237-4.038,10.646-5.192,14.473c1.89-0.155,3.307-0.369,5.715-0.892
			c1.522-0.313,2.311-0.42,2.781-0.42c0.575,0,0.841,0.213,0.841,0.683c0,1.103-1.523,3.515-3.148,5.033
			c-1.154,1.05-2.988,1.363-7.708,1.363c-5.716,0-7.394-0.208-7.394-3.041c0-3.932,5.977-25.644,8.39-29.733
			c0.474-0.784,1.625-2.724,7.079-2.724c2.253,0,3.144,0.576,3.144,2.044c0,1.472-1.311,5.505-3.67,11.168L95.378,477.872z"/>
		<path fill="#ED1C24" d="M111.419,491.193c-0.474,0-0.683-0.054-1.103-0.315c0.107,0.996,0.789,1.519,1.992,1.571
			c1.257,0,2.936-0.787,4.981-2.252c1.156-0.841,1.992-1.312,2.413-1.312c0.996,0,2.098,0.683,2.098,1.258
			c0,1.151-7.708,7.862-13.53,7.862c-4.246,0-6.973-2.568-6.973-6.711c0-3.042,1.519-7.342,3.723-10.75
			c3.25-4.874,8.23-7.394,11.954-7.394c3.2,0,5.14,2.152,5.14,5.717C122.115,484.742,114.93,491.193,111.419,491.193z
			 M114.828,476.876c-1.155,0-4.667,7.446-4.667,11.696c0,0.415,0,0.836,0.05,1.518c0.946-0.629,1.363-0.996,1.837-1.571
			c3.042-3.829,3.356-9.125,3.356-10.227C115.404,477.401,115.195,476.876,114.828,476.876z"/>
	</g>
	<g>
		<path fill="#ED1C24" d="M145.534,482.351c0.833,0,1.363,0.681,1.363,2.575c0,1.743-1.592,7.042-1.592,14.159
			c0,2.123,0.151,3.18,0.608,4.693c1.058-1.967,1.437-2.8,2.041-4.616c4.622-14.007,7.271-28.624,8.786-43.313
			c-1.744,0.38-10.452,3.031-12.493,3.031c-2.728,0-4.393-1.136-4.393-2.957c0-2.951,2.801-7.192,5.602-8.328
			c2.348-0.907,5.985-1.365,11.586-1.365c11.207,0,16.354,1.218,16.354,3.94c0,2.802-5.752,31.273-16.808,51.491
			c-3.258,5.979-7.12,9.011-11.133,9.011c-4.164,0-8.782-7.194-8.782-13.479C136.674,487.122,143.415,482.351,145.534,482.351z"/>
		<path fill="#ED1C24" d="M184.759,488.258c-0.682,0-0.987-0.073-1.592-0.453c0.151,1.437,1.136,2.196,2.878,2.27
			c1.817,0,4.238-1.136,7.194-3.255c1.665-1.212,2.877-1.894,3.482-1.894c1.437,0,3.029,0.984,3.029,1.816
			c0,1.666-11.134,11.357-19.536,11.357c-6.136,0-10.071-3.71-10.071-9.691c0-4.394,2.196-10.598,5.376-15.521
			c4.695-7.044,11.888-10.677,17.266-10.677c4.618,0,7.418,3.103,7.418,8.256C200.204,478.944,189.83,488.258,184.759,488.258z
			 M189.679,467.588c-1.666,0-6.741,10.748-6.741,16.885c0,0.604,0,1.208,0.078,2.196c1.363-0.91,1.968-1.441,2.649-2.274
			c4.393-5.526,4.846-13.174,4.846-14.762C190.511,468.342,190.209,467.588,189.679,467.588z"/>
	</g>
	<g>
		<path fill="#ED1C24" d="M227.088,475.156c4.919-4.846,7.949-6.965,9.994-6.965s2.951,1.588,2.951,5.148
			c0,0.759-0.072,1.816-0.225,3.862c-0.306,3.482-0.456,6.662-0.456,8.937c0,0.907,0,2.046,0.077,2.951
			c0.074,0.911,0.604,5.757,0.604,5.907c0,1.516-3.18,2.802-6.662,2.802c-4.919,0-7.569-2.879-7.569-8.256
			c0-0.755,0.074-1.968,0.225-3.33c-0.907,0.681-1.587,1.212-3.18,2.425c-8.631,6.812-12.796,9.462-15.144,9.462
			c-2.727,0-4.466-2.42-4.466-5.979c0-5.757,1.89-14.085,4.919-21.957c2.197-5.684,4.923-8.333,9.088-8.333
			c3.103,0,5.148,2.046,5.148,5.226c0,2.197-0.605,4.165-2.274,7.798l-0.526,1.062c-2.123,4.544-3.107,7.193-3.107,8.177
			c0,0.53,0.229,0.833,0.608,0.833c0.682,0,1.817-0.983,4.164-3.633c0.833-0.985,1.891-2.124,3.253-3.482l1.365-1.365
			L227.088,475.156z"/>
	</g>
	<g>
		<path fill="#ED1C24" d="M274.34,473.312c1.363-6.186,2.727-10.121,4.091-11.486c0.734-0.782,1.939-1.151,3.878-1.151
			c1.049,0,1.837,0.107,2.779,0.578c-3.564,10.797-3.616,19.084-3.616,20.763c0,3.984,0.574,7.762,2.044,12.901
			c-2.518,1.78-5.294,3.041-6.871,3.041c-2.568,0-2.882-3.307-3.302-7.446c-4.508,4.667-9.125,7.762-11.64,7.762
			c-2.886,0-4.878-2.626-4.878-6.346c0-3.354,1.47-7.604,3.984-11.382c3.567-5.396,8.389-7.442,10.435-7.442
			c0.841,0,1.417,0.261,2.886,1.257L274.34,473.312z M273.291,485.003c-0.89,0.789-1.519,1.156-1.939,1.156
			c-0.208,0-0.367-0.106-0.367-0.315c0-0.158,0.052-0.313,0.159-0.681c0.367-1.05,0.522-1.992,0.522-2.988
			c0-1.891-0.89-5.402-1.833-5.402c-1.209,0-3.831,6.292-3.831,10.538c0,1.992,0.629,3.042,1.785,3.042
			c1.31,0,3.617-1.625,5.503-3.88V485.003z"/>
		<path fill="#ED1C24" d="M303.069,482.121c3.406-3.355,5.503-4.825,6.919-4.825c1.418,0,2.046,1.102,2.046,3.564
			c0,0.525-0.054,1.261-0.159,2.673c-0.208,2.412-0.315,4.618-0.315,6.19c0,0.629,0,1.416,0.054,2.045
			c0.053,0.628,0.42,3.984,0.42,4.09c0,1.05-2.204,1.94-4.614,1.94c-3.409,0-5.246-1.992-5.246-5.717
			c0-0.521,0.053-1.362,0.16-2.306c-0.629,0.469-1.103,0.836-2.206,1.677c-5.977,4.721-8.858,6.553-10.484,6.553
			c-1.89,0-3.095-1.677-3.095-4.14c0-3.984,1.31-9.753,3.409-15.207c1.519-3.931,3.409-5.77,6.292-5.77
			c2.15,0,3.564,1.418,3.564,3.617c0,1.523-0.417,2.887-1.572,5.401l-0.367,0.735c-1.47,3.148-2.147,4.98-2.147,5.663
			c0,0.367,0.154,0.579,0.416,0.579c0.474,0,1.258-0.681,2.887-2.52c0.576-0.681,1.31-1.469,2.254-2.413l0.943-0.942
			L303.069,482.121z"/>
	</g>
	<g>
		<path fill="#ED1C24" d="M361.979,456.246c0-1.254-0.295-1.847-0.812-1.847c-2.287,0-14.246,13.359-14.246,29.08
			c0,4.798,0.813,6.198,3.618,6.198c5.536,0,16.829-7.304,18.008-8.116c2.286-1.478,3.246-1.992,3.911-1.992
			c0.812,0,1.107,0.44,1.107,1.253c0,1.919-2.435,7.309-4.28,8.855c-4.797,4.209-15.795,8.562-21.626,8.562
			c-8.932,0-15.942-7.01-15.942-15.865c0-4.797,2.512-11.443,6.57-17.421c7.233-10.773,19.632-16.607,25.83-16.607
			c6.275,0,10.04,3.47,10.04,9.301c0,11.885-11.513,23.769-17.788,23.769c-1.107,0-1.772-0.666-1.772-1.698
			c0-0.665,0.221-1.106,0.96-2.214c1.183-1.697,1.918-3.029,3.024-5.755C360.504,466.727,361.979,460.083,361.979,456.246z"/>
		<path fill="#ED1C24" d="M405.805,463.402c0,0.89-0.887,1.478-2.51,1.551c-7.75,0.441-14.098,8.64-14.098,18.233
			c0,5.237,2.657,8.708,6.642,8.708c3.69,0,6.862-4.356,6.862-9.373c0-4.137-1.845-7.9-5.017-10.26
			c-0.666-0.514-1.033-0.96-1.033-1.184c0-1.177,5.684-4.206,8.636-4.206c4.428,0,8.046,5.021,8.046,11.22
			c0,5.018-2.144,10.48-5.315,13.583c-3.984,3.91-10.261,6.642-15.425,6.642c-8.267,0-16.162-3.842-16.162-12.917
			c0-11.366,12.175-23.247,23.912-23.247C404.033,462.152,405.805,462.521,405.805,463.402z"/>
		<path fill="#ED1C24" d="M439.96,475.732c4.797-4.729,7.749-6.794,9.741-6.794s2.879,1.551,2.879,5.021
			c0,0.739-0.074,1.773-0.222,3.766c-0.298,3.393-0.443,6.496-0.443,8.707c0,0.887,0,1.992,0.071,2.879
			c0.074,0.887,0.594,5.609,0.594,5.757c0,1.479-3.1,2.731-6.496,2.731c-4.797,0-7.381-2.805-7.381-8.048
			c0-0.733,0.072-1.918,0.225-3.245c-0.887,0.665-1.552,1.18-3.104,2.364c-8.414,6.642-12.473,9.222-14.76,9.222
			c-2.657,0-4.354-2.359-4.354-5.829c0-5.609,1.845-13.726,4.797-21.406c2.139-5.536,4.798-8.114,8.858-8.114
			c3.026,0,5.019,1.992,5.019,5.093c0,2.14-0.593,4.059-2.218,7.599l-0.514,1.032c-2.065,4.431-3.025,7.014-3.025,7.974
			c0,0.515,0.221,0.812,0.588,0.812c0.665,0,1.771-0.96,4.062-3.543c0.812-0.96,1.847-2.066,3.173-3.396l1.326-1.327L439.96,475.732
			z"/>
		<path fill="#ED1C24" d="M474.413,472.041c3.47-5.829,5.83-9.228,10.406-9.228c5.609,0,9.228,5.169,9.228,13.212
			c0,11.513-8.635,22.513-17.642,22.513c-3.544,0-5.682-1.406-7.528-4.798c-3.024,9.814-4.871,15.424-6.568,16.829
			c-0.593,0.513-1.107,0.734-1.846,0.734c-2.806,0-4.352-2.805-4.352-7.676c0-11.219,6.417-40.073,14.243-40.073
			c2.214,0,3.467,1.251,3.467,3.465c0,1.037-0.588,5.981-0.662,7.161L474.413,472.041z M474.339,492.409
			c4.059,0,7.456-5.978,7.456-12.914c0-3.396-0.593-6.572-1.258-6.572c-1.032,0-7.304,9.305-10.035,16.609
			C471.241,491.377,472.568,492.409,474.339,492.409z"/>
		<path fill="#ED1C24" d="M499.865,482.741c0-1.478,0.958-4.131,1.845-4.943c1.18-1.107,3.245-1.552,6.937-1.552
			c5.021,0,7.014,0.887,7.014,3.025c0,1.033-0.445,2.511-1.032,3.323c-1.625,2.286-8.641,3.984-10.485,3.984
			C501.636,486.579,499.865,484.954,499.865,482.741z"/>
	</g>
	<g>
		<path fill="#ED1C24" d="M529.831,460.083c-5.459-0.146-7.231-0.887-7.231-3.246c0-2.438,4.279-6.867,6.496-7.972
			c0.662-0.295,1.547-0.445,2.879-0.445c2.212,0,13.578,0.743,14.17,0.743c3.765,0.072,6.496,0.072,6.496,4.204
			c0,5.242-3.691,5.536-9.745,6.051l-3.912,12.916c1.107,0,6.644-0.293,7.823-0.293c3.617,0,4.797,0.662,4.797,2.58
			c0,1.479-1.694,4.802-3.319,6.423c-1.032,0.958-2.364,0.958-6.568,0.958c-1.847,0-3.472,0.074-5.537,0.147
			c-2.139,7.383-3.689,10.631-6.348,13.362c-1.695,1.847-3.838,2.879-5.757,2.879c-2.952,0-5.385-1.845-5.385-4.209
			c0-2.731,5.609-20.148,10.329-32.029L529.831,460.083z"/>
	</g>
	<g>
		<path fill="#ED1C24" d="M581.782,463.402c0,0.89-0.887,1.478-2.511,1.551c-7.749,0.441-14.098,8.64-14.098,18.233
			c0,5.237,2.657,8.708,6.643,8.708c3.69,0,6.862-4.356,6.862-9.373c0-4.137-1.845-7.9-5.017-10.26
			c-0.667-0.514-1.033-0.96-1.033-1.184c0-1.177,5.683-4.206,8.635-4.206c4.429,0,8.046,5.021,8.046,11.22
			c0,5.018-2.143,10.48-5.314,13.583c-3.984,3.91-10.259,6.642-15.425,6.642c-8.267,0-16.162-3.842-16.162-12.917
			c0-11.366,12.173-23.247,23.911-23.247C580.011,462.152,581.782,462.521,581.782,463.402z"/>
		<path fill="#ED1C24" d="M615.941,475.732c4.797-4.729,7.748-6.794,9.742-6.794c1.992,0,2.877,1.551,2.877,5.021
			c0,0.739-0.074,1.773-0.22,3.766c-0.294,3.393-0.446,6.496-0.446,8.707c0,0.887,0,1.992,0.074,2.879
			c0.078,0.887,0.592,5.609,0.592,5.757c0,1.479-3.099,2.731-6.495,2.731c-4.797,0-7.382-2.805-7.382-8.048
			c0-0.733,0.073-1.918,0.225-3.245c-0.885,0.665-1.552,1.18-3.104,2.364c-8.414,6.642-12.471,9.222-14.758,9.222
			c-2.657,0-4.356-2.359-4.356-5.829c0-5.609,1.847-13.726,4.797-21.406c2.14-5.536,4.797-8.114,8.86-8.114
			c3.024,0,5.017,1.992,5.017,5.093c0,2.14-0.592,4.059-2.212,7.599l-0.52,1.032c-2.065,4.431-3.024,7.014-3.024,7.974
			c0,0.515,0.22,0.812,0.587,0.812c0.667,0,1.772-0.96,4.062-3.543c0.812-0.96,1.846-2.066,3.172-3.396l1.327-1.327L615.941,475.732
			z"/>
		<path fill="#ED1C24" d="M636.072,476.1c1.992-6.863,3.691-13.064,8.562-13.064c1.697,0,2.805,1.037,3.172,3.103
			c0.371-0.371,0.518-0.519,0.886-1.037c1.404-1.625,2.066-2.065,3.024-2.065c1.992,0,3.104,2.14,3.104,6.124
			c0,6.573-2.438,13.582-4.724,13.582c-0.887,0-1.258-1.326-1.258-4.502c0-3.101-0.661-5.831-1.032-5.831
			c-0.441,0-1.18,3.543-1.475,9.227c-0.072,1.772-0.15,3.47-0.37,5.238l-0.074,0.738c-0.666,5.981-0.738,6.275-2.659,8.048
			c-1.771,1.547-3.612,2.433-5.312,2.433c-2.95,0-4.208-1.992-4.208-6.715c0-3.839,0.886-10.035,2.145-14.317L636.072,476.1z"/>
		<path fill="#ED1C24" d="M660.715,476.1c1.992-6.863,3.691-13.064,8.562-13.064c1.698,0,2.805,1.037,3.172,3.103
			c0.371-0.371,0.519-0.519,0.886-1.037c1.404-1.625,2.066-2.065,3.024-2.065c1.992,0,3.104,2.14,3.104,6.124
			c0,6.573-2.438,13.582-4.724,13.582c-0.887,0-1.257-1.326-1.257-4.502c0-3.101-0.662-5.831-1.033-5.831
			c-0.441,0-1.18,3.543-1.474,9.227c-0.073,1.772-0.151,3.47-0.371,5.238l-0.074,0.738c-0.665,5.981-0.738,6.275-2.657,8.048
			c-1.772,1.547-3.614,2.433-5.312,2.433c-2.952,0-4.21-1.992-4.21-6.715c0-3.839,0.886-10.035,2.144-14.317L660.715,476.1z"/>
		<path fill="#ED1C24" d="M695.985,488.498c-0.665,0-0.96-0.074-1.551-0.44c0.15,1.4,1.11,2.14,2.805,2.213
			c1.771,0,4.135-1.107,7.014-3.173c1.625-1.184,2.805-1.846,3.393-1.846c1.404,0,2.956,0.961,2.956,1.773
			c0,1.62-10.853,11.066-19.046,11.066c-5.977,0-9.815-3.617-9.815-9.446c0-4.279,2.14-10.333,5.242-15.127
			c4.573-6.866,11.587-10.41,16.824-10.41c4.504,0,7.235,3.029,7.235,8.046C711.042,479.423,700.929,488.498,695.985,488.498z
			 M700.782,468.35c-1.625,0-6.569,10.48-6.569,16.457c0,0.593,0,1.185,0.074,2.145c1.331-0.886,1.918-1.405,2.585-2.218
			c4.282-5.389,4.724-12.84,4.724-14.392C701.596,469.086,701.301,468.35,700.782,468.35z M705.433,448.125
			c1.105-1.697,1.18-1.771,1.992-2.14c2.216-0.809,6.201-1.771,7.528-1.771c0.738,0,1.107,0.293,1.107,0.963
			c0,2.876-8.488,11.955-15.792,11.955c-1.034,0-1.552-0.367-1.552-1.107c0-0.518,0.293-0.885,1.4-1.697
			c0.739-0.52,0.959-0.74,1.624-1.327C702.994,451.67,703.959,450.415,705.433,448.125z"/>
	</g>
</g>
<rect x="725.744" y="479.365" fill="#ED1C24" width="44.026" height="3.85"/>
<rect x="27.113" y="479.365" fill="#ED1C24" width="44.035" height="3.85"/>
<g>
	<path fill="#034EA2" d="M114.419,196.966c0,9.447-7.65,17.089-17.074,17.089H49.988c-9.431,0-16.976-7.183-16.976-16.614V88.826
		c0-7.412-13.011-0.423-20.18-9.039c-4.206-5.034-3.561-10.07-3.561-10.07l0.032-29.861c0-9.423,6.631-16.547,17.074-20.085
		c0,0,27.795-9.535,43.002-10.088l27.966,0.047c9.423,0,17.074,7.639,17.074,17.082V196.966z M137.593,23.537L118.988,8.249
		l0.339,0.339c-5.042-5.31-12.162-8.354-19.54-8.354c-0.004,0-28.91-0.034-28.91-0.034l-0.167,0.004
		C53.924,0.798,25.112,10.443,23.896,10.857C8.981,15.804,0.061,26.635,0.061,39.812c0,0-0.024,29.097-0.024,29.771
		C0.017,69.901,0,70.276,0,70.719c0,3.187,0.776,9.307,5.875,15.311c2.573,3.027,5.647,6.02,8.619,8.908
		c3.458,3.367,9.194,8.959,9.953,11.334c0,0.732,0.005,92.475,0.005,92.475c0,7.204,2.886,13.875,8.12,18.771l23.36,22.152
		l-0.302-0.292c4.981,5.171,12.097,8.147,19.51,8.147h44.583c14.75,0,26.753-11.856,26.753-26.421V43.169
		C146.477,35.678,143.235,28.542,137.593,23.537 M137.429,23.383c0.062,0.045,0.106,0.104,0.164,0.154l0.118,0.102L137.429,23.383z
		 M32.588,217.522c0,0-0.005-0.005-0.017-0.005l-0.033-0.038L32.588,217.522z M532.681,173.027
		c0,22.604-18.462,40.933-41.238,40.933h-80.028c-22.768,0-41.234-18.329-41.234-40.933V50.662
		c0-22.605,18.467-40.933,41.234-40.933h80.028c22.776,0,41.238,18.327,41.238,40.933V173.027z M530.365,14.297
		C521.596,5.627,507.891,0,494.438,0H413.61c-29.075,0-51.858,21.634-51.858,49.253v125.782c0,12.274,4.451,24.146,12.534,33.428
		c0,0,33.755,38.838,60.93,38.842c10.534,0,75.855-0.004,75.855-0.004c37.118,0,52.294-15.098,52.294-46.803
		c0-5.015-0.021-123.272-0.021-123.272C563.345,54.185,539.136,22.969,530.365,14.297 M741.123,173.027
		c0,22.604-18.47,40.933-41.242,40.933H619.86c-22.776,0-41.242-18.329-41.242-40.933V50.662c0-22.605,18.466-40.933,41.242-40.933
		h80.021c22.772,0,41.242,18.327,41.242,40.933V173.027z M771.783,77.225c0-23.04-24.205-54.256-32.976-62.928
		C730.039,5.627,716.333,0,702.877,0h-80.824c-29.077,0-51.857,21.634-51.857,49.253v125.782c0,12.274,4.45,24.146,12.534,33.428
		c0,0,33.755,38.838,60.933,38.842c10.529,0,75.848-0.004,75.848-0.004c37.123,0,52.294-15.098,52.294-46.803
		C771.804,195.482,771.783,77.225,771.783,77.225 M324.237,173.027c0,22.604-18.465,40.933-41.238,40.933h-80.023
		c-22.773,0-41.235-18.329-41.235-40.933V50.662c0-22.605,18.462-40.933,41.235-40.933H283c22.773,0,41.238,18.327,41.238,40.933
		V173.027z M321.927,14.297C313.153,5.627,299.452,0,285.988,0h-80.819c-29.081,0-51.854,21.634-51.854,49.253v125.782
		c0,12.274,4.446,24.146,12.53,33.428c0,0,33.755,38.838,60.929,38.842c10.534,0,75.855-0.004,75.855-0.004
		c37.119,0,52.286-15.098,52.286-46.803c0-5.015-0.016-123.272-0.016-123.272C354.899,54.185,330.692,22.969,321.927,14.297"/>
	<path fill="#ED1C24" d="M365.681,395.899c-5.908,0-27.215-0.097-27.215-0.097l-10.646-43.376c-0.825-2.801-2.013-4.356-4.507-4.356
		c-2.491,0-4.509,1.953-4.509,4.356l0.021,0.046l-0.077,33.151c0,5.732-4.7,10.179-10.506,10.179h-19.311
		c-5.801,0-10.499-4.434-10.499-10.175V281.934c0-5.76,4.698-10.367,10.499-10.367h54.823c0,0,9.577-0.071,13.072,0.973
		c9.693,3.24,15.013,9.566,15.013,18.239v29.412c0,0,0.596,4.651-3.287,9.277c-4.287,5.111-14.714,4.237-14.714,4.237
		c3.246,0.382,6.822,1.301,10.121,4.345c5.009,4.628,5.569,9.267,5.569,9.267l7.279,32.239
		C379.558,389.041,374.172,395.899,365.681,395.899 M390.132,364.317c-0.245-1.419-0.797-5.744-4.761-10.299
		c1.103-0.743,3.589-1.625,4.471-2.696c4.761-5.655,5.266-11.51,5.141-13.289v-29.14c0-6.1-2.111-11.45-6.015-15.71L371.899,275.3
		l-0.017,0.024c-3.192-3.609-7.646-6.459-13.199-8.316c-0.061-0.021-0.122-0.049-0.187-0.062
		c-3.556-1.058-10.542-1.221-14.388-1.221l-0.354,0.004h-54.823c-9.006,0-16.333,7.265-16.333,16.204v103.699
		c0,4.176,1.572,7.924,4.155,10.745l15.212,17.371c2.968,3.675,7.565,5.998,12.819,5.998c0,0,6.157,0.008,14.984,0.021
		c2.67-0.372,6.389-1.479,10.038-4.565c0.184-0.159,0.369-0.318,0.543-0.481c0.18,0.163,0.364,0.326,0.552,0.481
		c3.743,3.169,7.556,4.255,10.234,4.589c18.388,0.025,36.478,0.05,39.426,0.05c5.871,0,11.076-2.458,14.289-6.736
		c3.397-4.536,4.292-10.518,2.495-16.874L390.132,364.317z M118.119,337.921c3.907,4.623,3.323,9.268,3.323,9.268l-0.033,29.399
		c0,8.697-6.197,15.238-15.942,18.471c-3.527,1.046-12.333,0.76-12.333,0.76l-54.234,0.041c-5.85,0-10.585-4.67-10.585-10.407
		V281.75c0-5.752,4.736-10.363,10.585-10.363h54.234c0,0,8.806-0.29,12.333,0.755c9.746,3.241,15.942,9.788,15.942,18.462
		l0.033,29.411c0,0,0.583,4.644-3.323,9.271c-2.523,2.982-5.81,3.927-8.937,4.315C112.309,333.989,115.595,334.938,118.119,337.921
		 M137.939,351.707c0.163-0.175,0.323-0.358,0.486-0.542c4.76-5.637,4.817-11.456,4.703-13.274l-0.029-29.177
		c0-5.021-1.608-9.635-4.547-13.552l0.028-0.005l-0.29-0.33c-0.596-0.766-1.229-1.505-1.927-2.213l-14.138-16.237l-0.021,0.041
		c-3.43-4.276-8.496-7.688-14.906-9.811c-0.058-0.021-0.114-0.043-0.175-0.06c-0.866-0.255-3.491-1.037-11.297-1.037
		c-1.384,0-2.429,0.027-2.771,0.039H38.891c-9.051,0-16.412,7.265-16.412,16.2v103.694c0,3.984,1.465,7.622,3.882,10.443
		l15.563,17.78c3.009,3.732,7.634,6.123,12.823,6.123l54.152-0.036c0.339,0.013,1.396,0.046,2.805,0.046
		c7.785,0,10.415-0.788,11.275-1.045c0.058-0.018,0.115-0.03,0.168-0.051c12.497-4.14,19.951-13.113,19.951-23.997l0.029-29.189
		c0.114-1.809,0.065-7.632-4.703-13.264C138.258,352.066,138.103,351.887,137.939,351.707 M246.664,370.988
		c0,13.774-11.069,24.944-24.704,24.944h-43.484c-13.64,0-24.708-11.17-24.708-24.944v-74.369c0-13.771,11.069-24.929,24.708-24.929
		h43.484c13.635,0,24.704,11.158,24.704,24.929V370.988z M244.333,275.688l-0.021,0.043c-5.584-6.06-13.525-9.876-22.352-9.876
		h-43.484c-16.844,0-30.539,13.806-30.539,30.765v74.369c0,7.926,3.01,15.138,7.913,20.601l-0.049,0.017l16.4,18.731l0.032-0.058
		c5.565,5.895,13.399,9.593,22.095,9.593h43.485c16.832,0,30.538-13.807,30.538-30.773v-74.373c0-8.441-3.396-16.097-8.88-21.659
		L244.333,275.688z M738.991,389.4c-7.666,6.908-15.448,6.394-15.448,6.394l-28.66-0.017H667.44c0,0-12.346,1.147-12.346-10.19
		l-0.062-26.659c-0.032-6.087,4.862-4.415,4.862-4.415c0.393,0.107,29.146,8.824,29.146,8.824c2.703,0.565,5.348-1.174,5.898-3.862
		c0.555-2.692-1.19-5.321-3.878-5.872l-31.04-10.615c-5.299-2.179-4.973-9.533-4.973-9.533L655,294.982l-0.045-0.092
		c0.099-1.021,0.621-10.156,8.223-16.996c7.663-6.902,16.425-6.508,16.425-6.508h56.181c0,0,12.346-1.168,12.346,10.18v36.821
		c0.036,6.095-4.863,4.419-4.863,4.419l-29.088-8.859c-2.703-0.555-5.34,1.18-5.88,3.873c-0.567,2.7,1.185,5.321,3.875,5.869
		l30.966,10.647c5.301,2.173,4.978,9.528,4.978,9.528l0.057,28.523C748.096,373.425,746.581,382.556,738.991,389.4 M769.845,357.958
		c-0.312-2.681-1.368-6.617-4.619-10.47c-0.166-0.184-0.321-0.367-0.484-0.543c0.163-0.18,0.326-0.358,0.484-0.551
		c3.189-3.771,4.263-7.622,4.594-10.305v-36.419c0-4.712-1.588-8.602-4.393-11.379l-15.436-17.722l-0.022,0.03
		c-3.004-3.228-7.568-5.085-13.227-5.085c-0.522,0-0.931,0.019-1.192,0.038h-55.817c-0.086,0-0.22-0.004-0.388-0.004
		c-2.629,0-11.82,0.576-20.066,8.01c-8.181,7.357-9.806,16.936-10.132,20.793c-0.013,0.176,0.019,0.45,0.019,0.634l0.045,38.305
		c-0.163,4.272,1.467,12.171,8.599,15.098c0.081,0.028,0.155,0.062,0.232,0.092c-2.314,0.1-4.437,0.998-6.006,2.585
		c-1.902,1.908-2.861,4.563-2.841,7.879l0.069,26.643c0,4.046,1.197,7.528,3.401,10.224l-0.025,0.008l16.4,18.727l0.013-0.016
		c1.04,1.13,2.262,2.127,3.699,2.915c3.625,2.005,7.568,2.303,9.602,2.303c0.497,0,0.887-0.016,1.139-0.033h27.239l28.464,0.021
		c0.132,0.008,0.318,0.013,0.572,0.013c2.388,0,10.838-0.568,18.987-7.908c9.95-8.981,11.085-20.801,11.093-20.911
		c0.005-0.147,0.013-0.294,0.013-0.441C769.86,390.486,769.853,373.046,769.845,357.958 M623.172,385.587
		c0,10.55-10.443,10.19-10.443,10.19h-70.796c0,0-12.02,1.147-12.02-10.19V281.566c0-10.539,10.274-10.18,10.274-10.18h70.659
		c0,0,12.338-1.168,12.338,10.18l-0.163,25.084c0,5.329-4.83,5.776-4.83,5.776l-37.169,0.041c-2.727,0.339-4.654,2.831-4.315,5.556
		c0.359,2.722,2.854,4.65,5.581,4.308l35.883-0.019c0,0,4.927-0.614,4.927,5.7l0.018,16.463c0,5.334-4.838,5.781-4.838,5.781
		l-37.173,0.016c-2.716,0.361-4.642,2.853-4.299,5.581c0.339,2.72,2.849,4.65,5.572,4.308l35.878-0.017c0,0,4.941-0.619,4.941,5.697
		L623.172,385.587z M641.947,289.969l-16.351-18.78l-0.016,0.043c-2.985-3.625-7.77-5.716-13.776-5.716
		c-0.525,0-0.935,0.019-1.195,0.038l-70.544-0.004c-7.699,0-15.988,5.008-15.988,16.017v104.021c0,4.394,1.389,8.133,3.944,10.909
		l16.396,18.682c0.874,0.85,1.85,1.604,2.968,2.238c3.577,2.033,7.479,2.334,9.489,2.334c0.507,0,71.834-0.028,71.834-0.028
		c7.777,0,16.143-5.018,16.143-16.02l0.004-18.96c-0.273-2.688-1.303-6.723-4.638-10.664c-0.16-0.188-0.318-0.362-0.481-0.542
		c0.163-0.183,0.321-0.366,0.485-0.554c3.347-3.962,4.368-8.01,4.638-10.699v-15.558c-0.265-2.689-1.286-6.745-4.642-10.707
		c-0.16-0.192-0.318-0.367-0.481-0.55c0.163-0.176,0.321-0.362,0.485-0.551c3.372-3.984,4.381-8.055,4.646-10.743v-24.504
		c0-3.83-1.058-7.106-2.956-9.698L641.947,289.969z M498.275,385.587c0,10.55-10.644,10.19-10.644,10.19h-21.27
		c-2.675,0-5.655,1.511-10.697-11.562l-11.839-29.735c-1.261-2.46-4.295-3.435-6.789-2.205c-2.486,1.243-3.487,4.231-2.233,6.677
		l12.105,33.674c0,0,1.482,3.151-1.944,3.151h-27.75c0,0-12.496,1.147-12.496-10.19l0.163-104.021
		c0-10.539,10.562-10.18,10.562-10.18h19.334c2.805,0,7.378-0.945,12.142,11.541l11.849,29.75c1.253,2.445,4.29,3.436,6.769,2.194
		c2.504-1.236,3.5-4.217,2.242-6.681l-12.097-33.67c0,0-1.487-3.135,1.938-3.135h28.248c0,0,12.406-1.168,12.406,10.18V385.587z
		 M516.908,289.817l-16.365-18.741c-3.01-3.531-7.763-5.561-13.722-5.561c-0.507,0-71.491,0.034-71.491,0.034
		c-7.844,0-16.282,5.008-16.282,16.002l-0.163,104.035c0,3.98,1.163,7.415,3.311,10.089l16.38,18.698
		c1.094,1.208,2.367,2.258,3.891,3.086c3.646,1.997,7.609,2.29,9.652,2.29c0.502,0,71.489-0.028,71.489-0.028
		c7.88,0,16.355-5.018,16.355-16.028V299.671c0-3.899-1.098-7.232-3.074-9.85L516.908,289.817z"/>
	<path fill="#FFFFFF" d="M324.237,173.026c0,22.609-18.465,40.937-41.238,40.937h-80.023c-22.773,0-41.239-18.327-41.239-40.937
		V50.659c0-22.599,18.466-40.929,41.239-40.929H283c22.773,0,41.238,18.33,41.238,40.929V173.026z"/>
	<path fill="#FFFFFF" d="M741.123,173.026c0,22.609-18.467,40.937-41.239,40.937h-80.019c-22.777,0-41.243-18.327-41.243-40.937
		V50.659c0-22.599,18.466-40.929,41.243-40.929h80.019c22.772,0,41.239,18.33,41.239,40.929V173.026z"/>
	<path fill="#FFFFFF" d="M532.681,173.026c0,22.609-18.462,40.937-41.238,40.937h-80.028c-22.768,0-41.234-18.327-41.234-40.937
		V50.659c0-22.599,18.467-40.929,41.234-40.929h80.028c22.776,0,41.238,18.33,41.238,40.929V173.026z"/>
	<path fill="#FFFFFF" d="M498.275,385.587c0,10.55-10.644,10.19-10.644,10.19h-21.27c-2.675,0-5.655,1.511-10.692-11.562
		l-11.844-29.735c-1.261-2.46-4.295-3.435-6.786-2.205c-2.486,1.243-3.485,4.231-2.24,6.677l12.109,33.674
		c0,0,1.478,3.151-1.94,3.151h-27.757c0,0-12.493,1.147-12.493-10.19l0.163-104.021c0-10.541,10.562-10.18,10.562-10.18h19.334
		c2.805,0,7.378-0.945,12.142,11.541l11.849,29.75c1.253,2.445,4.29,3.436,6.769,2.194c2.504-1.236,3.5-4.217,2.242-6.681
		l-12.097-33.67c0,0-1.482-3.135,1.935-3.135h28.257c0,0,12.401-1.168,12.401,10.18V385.587z"/>
	<path fill="#FFFFFF" d="M623.172,385.587c0,10.55-10.443,10.19-10.443,10.19h-70.796c0,0-12.02,1.147-12.02-10.19V281.564
		c0-10.539,10.274-10.181,10.274-10.181h70.659c0,0,12.333-1.165,12.333,10.181l-0.158,25.083c0,5.332-4.83,5.779-4.83,5.779
		l-37.169,0.041c-2.731,0.339-4.654,2.831-4.318,5.556c0.359,2.726,2.856,4.648,5.584,4.306l35.878-0.012
		c0,0,4.937-0.619,4.937,5.695l0.013,16.463c0,5.334-4.838,5.781-4.838,5.781l-37.169,0.016c-2.72,0.359-4.646,2.853-4.303,5.581
		c0.339,2.72,2.849,4.654,5.567,4.308l35.879-0.013c0,0,4.945-0.624,4.945,5.693L623.172,385.587z"/>
	<path fill="#FFFFFF" d="M738.991,389.398c-7.666,6.91-15.448,6.396-15.448,6.396l-28.66-0.021H667.44
		c0,0-12.346,1.151-12.346-10.188l-0.062-26.66c-0.032-6.087,4.862-4.413,4.862-4.413c0.393,0.107,29.146,8.824,29.146,8.824
		c2.698,0.563,5.348-1.176,5.898-3.862c0.555-2.692-1.19-5.321-3.878-5.875l-31.036-10.614c-5.303-2.178-4.977-9.531-4.977-9.531
		L655,294.979l-0.04-0.088c0.094-1.024,0.616-10.157,8.218-16.993c7.663-6.906,16.425-6.511,16.425-6.511h56.184
		c0,0,12.343-1.169,12.343,10.177v36.823c0.041,6.095-4.863,4.419-4.863,4.419l-29.085-8.859c-2.706-0.551-5.343,1.179-5.883,3.875
		c-0.567,2.696,1.189,5.323,3.875,5.867l30.966,10.647c5.301,2.173,4.978,9.526,4.978,9.526l0.062,28.525
		C748.096,373.425,746.581,382.556,738.991,389.398"/>
	<path fill="#FFFFFF" d="M246.664,370.99c0,13.774-11.069,24.942-24.708,24.942h-43.479c-13.64,0-24.708-11.168-24.708-24.942
		v-74.369c0-13.771,11.069-24.933,24.708-24.933h43.479c13.64,0,24.708,11.162,24.708,24.933V370.99z"/>
	<path fill="#FFFFFF" d="M118.115,337.919c3.915,4.623,3.323,9.268,3.323,9.268l-0.024,29.402c0,8.696-6.202,15.237-15.947,18.47
		c-3.527,1.05-12.333,0.76-12.333,0.76l-54.238,0.041c-5.846,0-10.578-4.666-10.578-10.407v-103.7
		c0-5.757,4.732-10.364,10.578-10.364h54.238c0,0,8.806-0.291,12.333,0.754c9.746,3.239,15.947,9.786,15.947,18.462l0.024,29.408
		c0,0,0.592,4.646-3.323,9.278c-2.515,2.977-5.806,3.922-8.929,4.31C112.309,333.993,115.6,334.938,118.115,337.919"/>
	<path fill="#FFFFFF" d="M365.681,395.899c-5.908,0-27.21-0.093-27.21-0.093l-10.648-43.378c-0.828-2.802-2.021-4.36-4.507-4.36
		c-2.494,0-4.512,1.951-4.512,4.36l0.021,0.047l-0.072,33.146c0,5.738-4.7,10.185-10.51,10.185h-19.313
		c-5.798,0-10.496-4.438-10.496-10.18V281.932c0-5.757,4.698-10.368,10.496-10.368h54.826c0,0,9.577-0.067,13.072,0.974
		c9.688,3.24,15.008,9.57,15.008,18.244v29.41c0,0,0.604,4.648-3.282,9.272c-4.287,5.117-14.714,4.239-14.714,4.239
		c3.25,0.382,6.822,1.305,10.121,4.344c5.009,4.632,5.569,9.273,5.569,9.273l7.279,32.237
		C379.562,389.037,374.172,395.899,365.681,395.899"/>
	<path fill="#034EA2" d="M244.716,77.727c-4.522,0-8.196,2.676-8.196,5.958v70.133c0,3.291,3.674,5.967,8.196,5.967
		c4.532,0,8.195-2.676,8.195-5.967V83.686C252.911,80.403,249.248,77.727,244.716,77.727"/>
	<path fill="#034EA2" d="M661.606,77.727c-4.532,0-8.203,2.676-8.203,5.958v70.133c0,3.291,3.671,5.967,8.203,5.967
		c4.53,0,8.193-2.676,8.193-5.967V83.686C669.8,80.403,666.137,77.727,661.606,77.727"/>
	<path fill="#034EA2" d="M453.163,77.727c-4.532,0-8.202,2.676-8.202,5.958v70.133c0,3.291,3.67,5.967,8.202,5.967
		c4.527,0,8.19-2.676,8.19-5.967V83.686C461.354,80.403,457.69,77.727,453.163,77.727"/>
	<path fill="#ED1C24" d="M200.212,303.625c-3.188,0-5.773,1.8-5.773,4.062v49.349c0,2.238,2.584,4.049,5.773,4.049
		c3.192,0,5.781-1.811,5.781-4.049v-49.349C205.993,305.425,203.404,303.625,200.212,303.625"/>
	<path fill="#ED1C24" d="M71.222,314.149h7.243c2.952,0,5.348-2.305,5.348-5.142v-6.94c0-2.837-2.396-5.143-5.348-5.143h-7.243
		c-2.952,0-5.345,2.306-5.345,5.143v6.94C65.877,311.845,68.27,314.149,71.222,314.149"/>
	<path fill="#ED1C24" d="M78.517,343.73h-7.234c-2.952,0-5.348,2.305-5.348,5.142v6.94c0,2.834,2.396,5.135,5.348,5.135h7.234
		c2.956,0,5.356-2.301,5.356-5.135v-6.94C83.873,346.035,81.473,343.73,78.517,343.73"/>
	<path fill="#ED1C24" d="M331.174,296.619h-7.177c-2.935,0-5.316,2.305-5.316,5.142v6.941c0,2.839,2.381,5.141,5.316,5.141h7.177
		c2.936,0,5.316-2.302,5.316-5.141v-6.941C336.49,298.924,334.109,296.619,331.174,296.619"/>
	<path fill="#FFFFFF" d="M114.419,196.964c0,9.448-7.646,17.09-17.074,17.09H49.983c-9.426,0-16.971-7.178-16.971-16.614V88.824
		c0-7.412-13.011-0.422-20.18-9.037c-4.201-5.034-3.564-10.072-3.564-10.072l0.036-29.862c0-9.418,6.631-16.547,17.074-20.079
		c0,0,27.795-9.537,43.002-10.088L97.346,9.73c9.427,0,17.074,7.639,17.074,17.078V196.964z"/>
</g>
</svg>
